<?xml version="1.0" standalone="no"?>
<!DOCTYPE svg PUBLIC "-//W3C//DTD SVG 20010904//EN"
 "http://www.w3.org/TR/2001/REC-SVG-20010904/DTD/svg10.dtd">
<svg version="1.0" xmlns="http://www.w3.org/2000/svg"
 width="1024.000000pt" height="1024.000000pt" viewBox="0 0 1024.000000 1024.000000"
 preserveAspectRatio="xMidYMid meet">
<metadata>
Created by potrace 1.14, written by Peter Selinger 2001-2017
</metadata>
<g transform="translate(0.000000,1024.000000) scale(0.100000,-0.100000)"
fill="#000000" stroke="none">
<path d="M2402 8575 c-196 -43 -295 -205 -279 -454 11 -176 80 -280 212 -320
118 -35 198 -42 533 -48 l322 -6 0 -2637 0 -2638 -372 -5 c-336 -3 -380 -6
-439 -24 -131 -39 -198 -98 -236 -206 -28 -80 -25 -282 5 -358 44 -110 105
-173 208 -212 l59 -22 1524 -3 c1004 -1 1544 1 1580 8 89 16 176 64 221 121
92 117 114 347 49 500 -43 100 -150 168 -297 189 -38 5 -356 10 -724 10 l-658
0 0 1300 0 1300 774 0 773 0 6 -237 c7 -333 35 -471 113 -562 63 -74 170 -108
299 -98 199 17 275 101 305 339 14 114 14 1711 -1 1814 -22 162 -88 261 -200
300 -81 28 -236 26 -306 -5 -151 -66 -201 -214 -210 -623 l-6 -228 -773 0
-774 0 0 990 0 990 1590 0 1590 0 0 -442 c0 -630 17 -826 77 -948 34 -66 92
-113 171 -137 68 -21 264 -24 327 -5 71 21 148 74 183 126 70 104 67 64 67
1026 0 705 -3 875 -14 920 -34 133 -110 228 -220 272 l-56 23 -2680 2 c-2247
1 -2690 -1 -2743 -12z"/>
<path d="M7530 3985 c-569 -84 -1033 -471 -1214 -1015 -19 -58 -42 -145 -51
-195 -18 -100 -31 -338 -21 -379 l6 -26 58 29 c80 40 194 77 285 91 106 17
310 8 410 -19 165 -44 323 -135 448 -260 126 -126 213 -277 261 -451 20 -74
23 -107 22 -255 0 -156 -2 -177 -27 -259 -16 -49 -43 -122 -61 -162 -19 -40
-31 -75 -28 -78 11 -11 218 -5 322 9 773 105 1336 781 1296 1555 -11 229 -63
418 -167 620 -208 403 -591 691 -1038 781 -129 26 -374 33 -501 14z"/>
</g>
</svg>
